<svg width="1215" height="480" viewBox="0 0 1215 480" fill="none" xmlns="http://www.w3.org/2000/svg">
<path d="M172.4 292C172.4 275.2 166.4 260 154.4 247.2C142.4 234.4 127.6 228 110.4 228C93.2 228 78.4 234.4 66 247.2C54 260 48 274.8 48 292C48 309.6 54 324.4 66 336.8C78.4 349.6 93.2 356 110.4 356C127.6 356 142.4 349.6 154.4 336.8C166.4 324.4 172.4 309.2 172.4 292ZM47.6 404C50 415.2 55.6 424.8 64.4 433.6C76.8 446 91.6 452 109.2 452C126.4 452 141.2 446 153.6 433.6C166 421.2 172.4 406.4 172.4 388.8V350.8C170.8 352.4 169.2 354.4 167.6 356C150.8 374.8 130.4 384 106.4 384C81.6 384 61.2 374.8 44.4 356C28.4 338 20.4 316.8 20.4 292C20.4 267.6 28.4 246.4 44.4 228C61.2 209.6 81.6 200 106.4 200C129.6 200 150 209.6 167.6 228C169.2 230 170.8 232 172.4 233.6V204H200.4V388.8C200.4 414 191.2 435.6 173.6 453.2C155.6 471.2 134 480 109.2 480C84 480 62.4 471.2 44.8 453.2C30.4 439.2 22 422.8 18.8 404H47.6ZM374.469 291.2C374.469 273.6 368.069 258.8 355.669 246C342.869 233.6 328.069 227.2 310.469 227.2C292.869 227.2 277.669 233.6 265.269 246C252.469 258.8 246.469 273.6 246.469 291.2C246.469 308.8 252.469 323.6 265.269 336C277.669 348.8 292.869 354.8 310.469 354.8C328.069 354.8 342.869 348.8 355.669 336C368.069 323.6 374.469 308.8 374.469 291.2ZM402.469 291.2C402.469 316.8 393.269 338.4 375.269 356C357.269 374 335.269 382.8 310.469 382.8C285.269 382.8 263.269 374 245.269 356C227.269 338.4 218.469 316.8 218.469 291.2C218.469 266 227.269 244.4 245.269 226.4C263.269 208.4 284.869 199.2 310.469 199.2C335.669 199.2 357.269 208.4 375.269 226.4C393.269 244.4 402.469 266 402.469 291.2Z" fill="#1B1B1D"/>
<path d="M790.234 436.466L758.745 432.127C756.507 431.816 754.383 432.745 752.914 434.673L732.271 461.782C728.574 466.637 721.713 464.419 719.363 457.609L677.715 336.805C675.933 331.632 677.644 326.061 681.537 324.359L745.331 296.497C749.227 294.799 753.829 297.612 755.612 302.784L797.26 423.588C799.606 430.398 795.872 437.246 790.234 436.466Z" fill="#00A6E8"/>
<path d="M614.739 438.076L646.227 433.734C648.466 433.427 650.589 434.355 652.058 436.28L672.705 463.392C676.399 468.244 683.259 466.026 685.609 459.216L727.257 338.412C729.04 333.243 727.331 327.668 723.435 325.97L659.642 298.108C655.749 296.406 651.143 299.222 649.36 304.395L607.713 425.195C605.366 432.005 609.1 438.853 614.739 438.076Z" fill="#0389CB"/>
<mask id="mask0_9_316" style="mask-type:luminance" maskUnits="userSpaceOnUse" x="610" y="200" width="185" height="185">
<path d="M610.522 200H794.63V384.017H610.522V200Z" fill="white"/>
</mask>
<g mask="url(#mask0_9_316)">
<path d="M794.305 291.946C794.305 342.656 753.195 383.764 702.488 383.764C651.778 383.764 610.67 342.656 610.67 291.946C610.67 241.236 651.778 200.128 702.488 200.128C753.195 200.128 794.305 241.236 794.305 291.946Z" fill="url(#paint0_linear_9_316)"/>
</g>
<path d="M702.488 363.887C692.764 363.887 683.347 361.986 674.491 358.241C665.925 354.619 658.23 349.429 651.619 342.815C645.005 336.204 639.815 328.506 636.192 319.943C632.445 311.087 630.547 301.667 630.547 291.946C630.547 282.225 632.445 272.805 636.192 263.949C639.815 255.386 645.005 247.692 651.619 241.077C658.23 234.463 665.925 229.273 674.491 225.65C683.347 221.906 692.764 220.009 702.488 220.009C712.209 220.009 721.625 221.906 730.482 225.65C739.047 229.273 746.742 234.463 753.357 241.077C759.968 247.692 765.157 255.386 768.78 263.949C772.528 272.805 774.425 282.225 774.425 291.946C774.425 301.667 772.528 311.087 768.78 319.943C765.157 328.506 759.968 336.204 753.357 342.815C746.742 349.429 739.047 354.619 730.482 358.241C721.625 361.986 712.209 363.887 702.488 363.887Z" fill="#E5F9FF"/>
<path d="M708.261 243.937L718.391 264.462C719.329 266.363 721.142 267.68 723.239 267.984L745.888 271.276C751.169 272.042 753.279 278.535 749.457 282.259L733.068 298.236C731.548 299.715 730.856 301.845 731.214 303.935L735.084 326.493C735.985 331.75 730.465 335.765 725.741 333.28L705.483 322.63C703.609 321.645 701.367 321.645 699.49 322.63L679.231 333.28C674.508 335.765 668.987 331.75 669.889 326.493L673.758 303.935C674.116 301.845 673.424 299.715 671.904 298.236L655.519 282.259C651.693 278.535 653.804 272.042 659.088 271.276L681.733 267.984C683.83 267.68 685.646 266.363 686.585 264.462L696.711 243.937C699.074 239.153 705.898 239.153 708.261 243.937Z" fill="#00A6E8"/>
<path d="M1132.95 169.681C1134.99 171.711 1138.28 171.703 1140.31 169.665C1142.34 167.628 1142.34 164.334 1140.3 162.304C1138.26 160.277 1134.97 160.283 1132.94 162.319C1130.91 164.358 1130.92 167.655 1132.95 169.681ZM1160.84 175.951L1156.3 175.998L1136.15 176.212C1130.6 176.27 1126.08 171.77 1126.12 166.221L1126.27 141.526C1126.29 138.924 1127.33 136.431 1129.17 134.584L1163.82 99.7854C1167.69 95.8994 1173.97 95.8864 1177.86 99.7559L1202.39 124.189C1206.28 128.058 1206.29 134.343 1202.42 138.228L1167.77 173.028C1165.93 174.874 1163.44 175.923 1160.84 175.951Z" fill="#045794"/>
<path d="M1132.95 169.681C1134.99 171.711 1138.28 171.703 1140.31 169.665C1142.34 167.628 1142.34 164.334 1140.3 162.304C1138.26 160.277 1134.97 160.283 1132.94 162.319C1130.91 164.358 1130.92 167.655 1132.95 169.681ZM1136.15 176.212C1130.6 176.27 1126.08 171.77 1126.12 166.221L1126.27 141.526C1126.29 138.924 1127.33 136.431 1129.17 134.584L1159.37 104.248C1161.52 108.99 1163.19 113.9 1164.36 118.902C1167.35 131.671 1167.15 145.038 1163.75 157.73C1162.05 164.036 1159.57 170.18 1156.3 175.998L1136.15 176.212Z" fill="#2C8ABC"/>
<path d="M1152.91 138.891C1152.74 137.629 1151.56 136.587 1150.28 136.576C1149.01 136.559 1147.81 137.579 1147.61 138.833C1147.14 141.769 1150.58 142.588 1152.17 141.18C1152.73 140.69 1153.05 139.928 1152.91 138.891ZM1155.08 144.926C1146.18 152.975 1137.31 136.191 1147.25 132.078C1150.31 130.809 1154.27 131.984 1156.29 134.563C1158.69 137.632 1158.13 141.782 1155.52 144.5C1155.38 144.65 1155.23 144.788 1155.08 144.926ZM1163.75 157.73C1162.33 158.382 1160.54 158.053 1159.74 156.39C1158.84 154.527 1159.62 152.041 1159.85 150.113C1160.58 144.157 1161.29 138.202 1162.01 132.247C1162.38 129.214 1162.76 126.181 1163.11 123.146C1163.27 121.769 1163.52 119.988 1164.36 118.902C1164.97 118.11 1165.9 117.686 1167.33 118.058C1169.31 118.573 1169.82 120.486 1169.71 122.278C1169.71 122.315 1169.7 122.352 1169.7 122.39C1169.11 127.137 1168.52 131.884 1167.94 136.632C1167.53 139.975 1167.11 143.315 1166.7 146.654C1166.53 148.007 1166.4 149.372 1166.2 150.718C1165.94 152.412 1166.13 154.332 1165.47 155.93C1165.13 156.768 1164.49 157.382 1163.75 157.73ZM1181.7 137.561C1182.04 136.126 1181.14 134.652 1179.71 134.329C1178.66 134.094 1177.49 134.56 1176.89 135.457C1175.55 137.453 1177.55 140.213 1179.87 139.502C1180.29 139.372 1180.68 139.13 1180.99 138.812C1181.33 138.466 1181.58 138.032 1181.7 137.561ZM1178.93 144.558C1171.99 144.265 1168.91 134.885 1174.58 130.736C1177.45 128.63 1181.57 128.987 1184.25 131.252C1187.17 133.729 1187.55 138.455 1185.28 141.52C1185.06 141.822 1184.82 142.104 1184.55 142.364C1183.08 143.816 1181 144.646 1178.93 144.558Z" fill="white"/>
<path d="M448 380L420 380.4V80.4H448V234.4C449.2 232 451.2 230 452.8 228.4C469.6 209.6 490 200.4 514.4 200.4C538.4 200.4 558.8 209.6 575.6 228.4C591.6 246.4 600 267.6 600 292.4C600 316.8 591.6 338 575.6 356C558.8 374.8 538.4 384 514.4 384C490 384 469.6 374.8 452.8 356C451.2 354.4 449.2 352.4 448 350V380ZM572 292.4C572 275.2 566 260 554 247.6C542 234.8 527.2 228.4 510 228.4C492.4 228.4 477.6 234.8 465.6 247.6C453.6 260 448 275.2 448 292.4C448 309.2 453.6 324.4 465.6 337.2C477.6 350 492.4 356.4 510 356.4C527.2 356.4 542 350 554 337.2C566 324.4 572 309.2 572 292.4Z" fill="url(#paint1_linear_9_316)"/>
<path d="M929.647 380V270.4C929.647 258.8 926.847 248.8 921.647 240.8C916.447 232.8 908.047 228.8 896.047 228.8C884.047 228.8 874.047 230.8 866.847 235.6C859.247 240 853.247 246 848.447 253.2C840.047 266.4 836.047 284 836.047 306.4V380H808.047V204H836.047V234.4C841.647 224.4 849.247 216.4 858.447 210.4C868.047 204 878.847 200.4 891.647 200.4C904.047 200.4 914.047 202.4 922.047 206C929.647 209.6 936.047 214.4 941.647 220.8C952.047 233.2 957.647 249.6 957.647 270V380H929.647Z" fill="url(#paint2_linear_9_316)"/>
<path d="M1009.56 380H981.562V80H1009.56V283.2L1073.96 203.6H1111.16L1038.76 289.2L1115.96 380H1078.76L1009.56 295.6V380Z" fill="url(#paint3_linear_9_316)"/>
<path d="M1150 380H1122V204H1150V380Z" fill="url(#paint4_linear_9_316)"/>
<defs>
<linearGradient id="paint0_linear_9_316" x1="641.406" y1="230.583" x2="786.197" y2="329.5" gradientUnits="userSpaceOnUse">
<stop stop-color="#4BB3DD"/>
<stop offset="1" stop-color="#2F8FC0"/>
</linearGradient>
<linearGradient id="paint1_linear_9_316" x1="420" y1="80" x2="1154" y2="384" gradientUnits="userSpaceOnUse">
<stop stop-color="#67D7F9"/>
<stop offset="1" stop-color="#005190"/>
</linearGradient>
<linearGradient id="paint2_linear_9_316" x1="420" y1="80" x2="1154" y2="384" gradientUnits="userSpaceOnUse">
<stop stop-color="#67D7F9"/>
<stop offset="1" stop-color="#005190"/>
</linearGradient>
<linearGradient id="paint3_linear_9_316" x1="420" y1="80" x2="1154" y2="384" gradientUnits="userSpaceOnUse">
<stop stop-color="#67D7F9"/>
<stop offset="1" stop-color="#005190"/>
</linearGradient>
<linearGradient id="paint4_linear_9_316" x1="420" y1="80" x2="1154" y2="384" gradientUnits="userSpaceOnUse">
<stop stop-color="#67D7F9"/>
<stop offset="1" stop-color="#005190"/>
</linearGradient>
</defs>
</svg>
