<svg width="1136" height="400" viewBox="0 0 1136 400" fill="none" xmlns="http://www.w3.org/2000/svg">
<path d="M154.4 212C154.4 195.2 148.4 180 136.4 167.2C124.4 154.4 109.6 148 92.4 148C75.2 148 60.4 154.4 48 167.2C36 180 30 194.8 30 212C30 229.6 36 244.4 48 256.8C60.4 269.6 75.2 276 92.4 276C109.6 276 124.4 269.6 136.4 256.8C148.4 244.4 154.4 229.2 154.4 212ZM29.6 324C32 335.2 37.6 344.8 46.4 353.6C58.8 366 73.6 372 91.2 372C108.4 372 123.2 366 135.6 353.6C148 341.2 154.4 326.4 154.4 308.8V270.8C152.8 272.4 151.2 274.4 149.6 276C132.8 294.8 112.4 304 88.4 304C63.6 304 43.2 294.8 26.4 276C10.4 258 2.4 236.8 2.4 212C2.4 187.6 10.4 166.4 26.4 148C43.2 129.6 63.6 120 88.4 120C111.6 120 132 129.6 149.6 148C151.2 150 152.8 152 154.4 153.6V124H182.4V308.8C182.4 334 173.2 355.6 155.6 373.2C137.6 391.2 116 400 91.2 400C66 400 44.4 391.2 26.8 373.2C12.4 359.2 4 342.8 0.800001 324H29.6ZM356.469 211.2C356.469 193.6 350.069 178.8 337.669 166C324.869 153.6 310.069 147.2 292.469 147.2C274.869 147.2 259.669 153.6 247.269 166C234.469 178.8 228.469 193.6 228.469 211.2C228.469 228.8 234.469 243.6 247.269 256C259.669 268.8 274.869 274.8 292.469 274.8C310.069 274.8 324.869 268.8 337.669 256C350.069 243.6 356.469 228.8 356.469 211.2ZM384.469 211.2C384.469 236.8 375.269 258.4 357.269 276C339.269 294 317.269 302.8 292.469 302.8C267.269 302.8 245.269 294 227.269 276C209.269 258.4 200.469 236.8 200.469 211.2C200.469 186 209.269 164.4 227.269 146.4C245.269 128.4 266.869 119.2 292.469 119.2C317.669 119.2 339.269 128.4 357.269 146.4C375.269 164.4 384.469 186 384.469 211.2ZM430.391 300L402.391 300.4V0.399995H430.391V154.4C431.591 152 433.591 150 435.191 148.4C451.991 129.6 472.391 120.4 496.791 120.4C520.791 120.4 541.191 129.6 557.991 148.4C573.991 166.4 582.391 187.6 582.391 212.4C582.391 236.8 573.991 258 557.991 276C541.191 294.8 520.791 304 496.791 304C472.391 304 451.991 294.8 435.191 276C433.591 274.4 431.591 272.4 430.391 270V300ZM554.391 212.4C554.391 195.2 548.391 180 536.391 167.6C524.391 154.8 509.591 148.4 492.391 148.4C474.791 148.4 459.991 154.8 447.991 167.6C435.991 180 430.391 195.2 430.391 212.4C430.391 229.2 435.991 244.4 447.991 257.2C459.991 270 474.791 276.4 492.391 276.4C509.591 276.4 524.391 270 536.391 257.2C548.391 244.4 554.391 229.2 554.391 212.4ZM744.516 211.2C744.516 193.6 738.116 178.8 725.716 166C712.916 153.6 698.116 147.2 680.516 147.2C662.916 147.2 647.716 153.6 635.316 166C622.516 178.8 616.516 193.6 616.516 211.2C616.516 228.8 622.516 243.6 635.316 256C647.716 268.8 662.916 274.8 680.516 274.8C698.116 274.8 712.916 268.8 725.716 256C738.116 243.6 744.516 228.8 744.516 211.2ZM772.516 211.2C772.516 236.8 763.316 258.4 745.316 276C727.316 294 705.316 302.8 680.516 302.8C655.316 302.8 633.316 294 615.316 276C597.316 258.4 588.516 236.8 588.516 211.2C588.516 186 597.316 164.4 615.316 146.4C633.316 128.4 654.916 119.2 680.516 119.2C705.716 119.2 727.316 128.4 745.316 146.4C763.316 164.4 772.516 186 772.516 211.2ZM912.038 300V190.4C912.038 178.8 909.238 168.8 904.038 160.8C898.838 152.8 890.438 148.8 878.438 148.8C866.438 148.8 856.438 150.8 849.238 155.6C841.638 160 835.638 166 830.838 173.2C822.438 186.4 818.438 204 818.438 226.4V300H790.438V124H818.438V154.4C824.038 144.4 831.638 136.4 840.838 130.4C850.438 124 861.238 120.4 874.038 120.4C886.438 120.4 896.438 122.4 904.438 126C912.038 129.6 918.438 134.4 924.038 140.8C934.438 153.2 940.038 169.6 940.038 190V300H912.038ZM991.953 300H963.953V-2.38419e-05H991.953V203.2L1056.35 123.6H1093.55L1021.15 209.2L1098.35 300H1061.15L991.953 215.6V300ZM1130.71 63.2C1133.91 66.8 1135.91 71.2 1135.91 76C1135.91 80.8 1133.91 85.2 1130.71 88.4C1127.11 92 1122.71 93.6 1117.91 93.6C1113.11 93.6 1108.71 92 1105.51 88.4C1101.91 85.2 1100.31 80.8 1100.31 76C1100.31 71.2 1101.91 66.8 1105.51 63.2C1108.71 60 1113.11 58 1117.91 58C1122.71 58 1127.11 60 1130.71 63.2ZM1132.31 300H1104.31V124H1132.31V300Z" fill="black"/>
</svg>
