<svg width="453" height="609" viewBox="0 0 453 609" fill="none" xmlns="http://www.w3.org/2000/svg">
<path d="M435.389 517.36L366.496 507.867C361.598 507.187 356.952 509.219 353.739 513.437L308.573 572.748C300.485 583.371 285.474 578.518 280.332 563.618L189.212 299.313C185.311 287.996 189.057 275.807 197.574 272.084L337.147 211.125C345.672 207.409 355.74 213.563 359.641 224.88L450.761 489.185C455.896 504.085 447.725 519.066 435.389 517.36Z" fill="#2CB7EE"/>
<path d="M236.607 397.133L226.679 389.333L194.766 363.38C174.909 356.711 167.456 351.12 150.798 359.547L105.412 343.795C97.6006 347.75 91.8028 335.485 89.0022 343.795L36.1954 500.333C30.6341 516.818 33.0102 528.803 47.9612 535.06C49.7866 535.824 51.8255 535.854 53.7358 535.338L125.568 515.924C127.953 515.279 130.49 516.162 131.959 518.149L175.879 577.571C177.095 579.216 178.778 580.492 180.763 580.985C196.249 584.83 204.312 575.36 209.86 558.919L262.666 402.378C265.467 394.071 240.428 405.016 236.607 397.133Z" fill="#00A6E8"/>
<path d="M201.858 363.381C178.456 354.583 161.074 331.265 144.416 339.691L105.562 324.665C97.7513 328.62 91.8029 335.485 89.0023 343.796L42.9677 480.259C60.4696 479.616 77.7509 477.265 94.5662 473.282C137.503 463.143 177.746 448.902 222.424 427.627C243.699 417.496 271.016 395.893 293 381L201.858 363.381Z" fill="#0389CB"/>
<path d="M132.121 425.031C128.841 426.143 124.869 424.523 123.298 421.442C121.715 418.367 122.739 414.203 125.551 412.193C132.134 407.501 138.298 414.883 136.796 420.455C136.275 422.396 134.816 424.116 132.121 425.031ZM149.443 422.99C158.249 391.573 106.629 390.328 108.666 419.503C109.294 428.506 116.951 436.71 125.678 438.5C136.065 440.63 145.485 434.226 148.94 424.577C149.132 424.052 149.29 423.527 149.443 422.99ZM191.122 428.562C190.992 424.319 188.017 420.355 182.998 420.425C177.38 420.512 172.272 425.416 167.86 428.324C154.235 437.301 140.604 446.264 126.982 455.241C120.042 459.813 113.122 464.417 106.157 468.951C102.997 471.008 98.9614 473.77 97.3376 477.134C96.1509 479.586 96.2459 482.36 98.892 485.406C102.547 489.602 107.825 488.526 112.052 486.081C112.139 486.027 112.22 485.965 112.306 485.911C123.154 478.726 133.997 471.538 144.844 464.35C152.482 459.295 160.112 454.235 167.741 449.185C170.832 447.134 173.995 445.16 177.025 443.032C180.835 440.347 185.74 438.482 188.837 434.948C190.462 433.102 191.179 430.795 191.122 428.562ZM163.792 496.724C160.721 499.309 156.04 498.906 153.518 495.809C151.67 493.54 151.382 490.112 152.837 487.565C156.07 481.88 165.213 483.399 166.299 489.915C166.497 491.105 166.377 492.341 165.981 493.487C165.553 494.735 164.799 495.874 163.792 496.724ZM177.473 481.507C168.337 464.953 141.773 468.844 138.541 487.662C136.897 497.21 142.763 506.807 151.522 510.578C161.104 514.701 173.068 509.894 177.778 500.652C178.247 499.746 178.636 498.809 178.947 497.85C180.697 492.506 180.195 486.435 177.473 481.507Z" fill="white"/>
<mask id="mask0_9_317" style="mask-type:luminance" maskUnits="userSpaceOnUse" x="42" y="0" width="404" height="403">
<path d="M42.2003 0H445.007V402.607H42.2003V0Z" fill="white"/>
</mask>
<g mask="url(#mask0_9_317)">
<path d="M444.298 201.167C444.298 312.115 354.352 402.053 243.412 402.053C132.464 402.053 42.5255 312.115 42.5255 201.167C42.5255 90.2191 132.464 0.280518 243.412 0.280518C354.352 0.280518 444.298 90.2191 444.298 201.167Z" fill="#67D7F9"/>
</g>
<path d="M243.412 358.565C222.137 358.565 201.534 354.407 182.157 346.214C163.416 338.288 146.581 326.934 132.117 312.462C117.645 297.998 106.291 281.155 98.3649 262.422C90.1651 243.045 86.0135 222.435 86.0135 201.167C86.0135 179.9 90.1651 159.29 98.3649 139.913C106.291 121.179 117.645 104.344 132.117 89.8725C146.581 75.401 163.416 64.047 182.157 56.1205C201.534 47.9282 222.137 43.7766 243.412 43.7766C264.679 43.7766 285.282 47.9282 304.659 56.1205C323.4 64.047 340.235 75.401 354.707 89.8725C369.171 104.344 380.525 121.179 388.451 139.913C396.651 159.29 400.802 179.9 400.802 201.167C400.802 222.435 396.651 243.045 388.451 262.422C380.525 281.155 369.171 297.998 354.707 312.462C340.235 326.934 323.4 338.288 304.659 346.214C285.282 354.407 264.679 358.565 243.412 358.565Z" fill="#E5F9FF"/>
<path d="M256.043 96.1288L278.205 141.035C280.259 145.194 284.225 148.075 288.813 148.74L338.366 155.943C349.919 157.619 354.536 171.825 346.174 179.973L310.317 214.929C306.993 218.165 305.478 222.826 306.261 227.399L314.727 276.752C316.699 288.254 304.621 297.037 294.287 291.6L249.964 268.301C245.864 266.144 240.959 266.144 236.852 268.301L192.529 291.6C182.194 297.037 170.116 288.254 172.088 276.752L180.554 227.399C181.337 222.826 179.823 218.165 176.499 214.929L140.649 179.973C132.279 171.825 136.896 157.619 148.457 155.943L198.003 148.74C202.59 148.075 206.564 145.194 208.618 141.035L230.772 96.1288C235.943 85.6612 250.872 85.6612 256.043 96.1288Z" fill="#00A6E8"/>
</svg>
